<svg fill="#705951" xmlns="http://www.w3.org/2000/svg" viewBox="0 0 24 24" width="96px" height="96px">
  <path d="M7.25,16c0,0.966,0.784,1.75,1.75,1.75s1.75-0.784,1.75-1.75S9.966,14.25,9,14.25c-0.024,0-0.047,0.006-0.071,0.007	C8.359,13.159,8,11.719,8,10.154C8,6.818,9.603,4,11.5,4c1.286,0,2.435,1.297,3.043,3.17c0.743,0.119,1.484,0.322,2.221,0.576	C16.086,4.385,14.016,2,11.5,2C8.416,2,6,5.582,6,10.154c0,2.07,0.502,3.927,1.33,5.349C7.283,15.662,7.25,15.826,7.25,16z" />
  <path d="M16.098,16.965c0.799-0.162,1.402-0.868,1.402-1.715c0-0.966-0.784-1.75-1.75-1.75S14,14.284,14,15.25	c0,0.326,0.095,0.628,0.251,0.89c-0.707,1.015-1.783,1.966-3.078,2.667c-3.119,1.689-6.707,1.568-7.833-0.264	c-0.361-0.587-0.436-1.291-0.221-2.094c0.218-0.815,0.729-1.647,1.442-2.409c-0.218-0.725-0.374-1.495-0.464-2.298	c-1.46,1.209-2.506,2.684-2.909,4.191c-0.357,1.335-0.202,2.601,0.45,3.659C2.616,21.185,4.53,22,6.765,22	c1.692,0,3.568-0.464,5.36-1.436C13.835,19.638,15.217,18.362,16.098,16.965z" />
  <path d="M22.814,15.933c-0.564-2.107-2.372-4.163-4.835-5.497c-1.799-0.975-3.672-1.429-5.366-1.422	C12.296,8.696,11.859,8.5,11.375,8.5c-0.966,0-1.75,0.784-1.75,1.75S10.409,12,11.375,12c0.687,0,1.275-0.399,1.562-0.975	c1.293,0.058,2.732,0.434,4.09,1.169c1.96,1.062,3.438,2.692,3.855,4.256c0.215,0.803,0.14,1.507-0.221,2.094	c-0.718,1.168-2.434,1.637-4.391,1.39c-0.579,0.591-1.24,1.134-1.957,1.625c1,0.292,1.99,0.442,2.923,0.442	c2.234,0,4.148-0.815,5.128-2.408C23.016,18.533,23.171,17.268,22.814,15.933z" />
</svg>